<?xml version="1.0" encoding="UTF-8"?>
<!DOCTYPE svg PUBLIC "-//W3C//DTD SVG 1.1//EN" "http://www.w3.org/Graphics/SVG/1.1/DTD/svg11.dtd">
<svg xmlns="http://www.w3.org/2000/svg" version="1.1" width="545px" height="545px" style="shape-rendering:geometricPrecision; text-rendering:geometricPrecision; image-rendering:optimizeQuality; fill-rule:evenodd; clip-rule:evenodd" xmlns:xlink="http://www.w3.org/1999/xlink">
<g><path style="opacity:0.996" fill="#fe385c" d="M 146.5,72.5 C 230.167,72.3333 313.834,72.5 397.5,73C 430.178,76.5792 453.011,93.4126 466,123.5C 468.689,130.943 470.355,138.609 471,146.5C 471.667,230.167 471.667,313.833 471,397.5C 467.421,430.178 450.587,453.011 420.5,466C 413.057,468.689 405.391,470.355 397.5,471C 313.833,471.667 230.167,471.667 146.5,471C 103.448,465.071 78.9484,440.571 73,397.5C 72.0213,311.143 72.3547,224.81 74,138.5C 79.0723,111.5 93.9056,92.0002 118.5,80C 127.627,76.2204 136.961,73.7204 146.5,72.5 Z"/></g>
<g><path style="opacity:1" fill="#fe748c" d="M 134.5,96.5 C 140.842,96.3338 147.175,96.5005 153.5,97C 126.787,103.047 110.953,119.547 106,146.5C 105.333,227.167 105.333,307.833 106,388.5C 110.986,415.484 126.819,431.984 153.5,438C 234.167,438.667 314.833,438.667 395.5,438C 420.575,432.591 436.075,417.425 442,392.5C 444.384,426.938 428.884,448.105 395.5,456C 307.833,456.667 220.167,456.667 132.5,456C 107.252,449.417 92.4182,433.251 88,407.5C 87.3333,319.833 87.3333,232.167 88,144.5C 93.5739,118.761 109.074,102.761 134.5,96.5 Z"/></g>
<g><path style="opacity:1" fill="#c12f48" d="M 277.5,162.5 C 276.001,165.532 273.668,167.032 270.5,167C 253.757,147.254 232.757,134.587 207.5,129C 195.017,127.797 183.017,129.631 171.5,134.5C 177.917,129.464 185.25,126.298 193.5,125C 211.302,122.694 227.969,126.027 243.5,135C 255.866,142.863 267.199,152.03 277.5,162.5 Z"/></g>
<g><path style="opacity:1" fill="#c2314a" d="M 310.5,397.5 C 342.337,340.16 371.837,281.493 399,221.5C 413.834,188.717 407.334,161.217 379.5,139C 364.6,129.962 348.6,126.962 331.5,130C 324.027,132.199 316.694,134.699 309.5,137.5C 328.807,123.914 349.807,120.748 372.5,128C 400.894,140.616 414.06,162.45 412,193.5C 410.44,201.409 408.106,209.076 405,216.5C 379.056,271.722 352.056,326.388 324,380.5C 320.397,386.93 315.897,392.597 310.5,397.5 Z"/></g>
<g><path style="opacity:1" fill="#fefcfc" d="M 277.5,162.5 C 287.618,153.372 298.285,145.039 309.5,137.5C 316.694,134.699 324.027,132.199 331.5,130C 348.6,126.962 364.6,129.962 379.5,139C 407.334,161.217 413.834,188.717 399,221.5C 371.837,281.493 342.337,340.16 310.5,397.5C 290.901,417.68 268.901,420.847 244.5,407C 240.701,404.203 237.201,401.036 234,397.5C 201.636,339.106 171.636,279.44 144,218.5C 129.881,182.692 139.048,154.692 171.5,134.5C 183.017,129.631 195.017,127.797 207.5,129C 232.757,134.587 253.757,147.254 270.5,167C 273.668,167.032 276.001,165.532 277.5,162.5 Z"/></g>
<g><path style="opacity:1" fill="#fe385c" d="M 308.5,295.5 C 317.252,289.371 323.085,281.038 326,270.5C 329.331,254.154 327.331,238.487 320,223.5C 312.664,207.479 303.331,192.812 292,179.5C 291.51,178.207 291.343,176.873 291.5,175.5C 303.35,161.736 318.016,152.236 335.5,147C 366.051,144.234 383.718,157.901 388.5,188C 388.278,195.11 386.778,201.943 384,208.5C 356.854,267.792 327.854,326.125 297,383.5C 294.963,385.706 292.797,387.706 290.5,389.5C 273.659,395.162 260.493,390.495 251,375.5C 219.855,317.21 190.855,257.877 164,197.5C 160.137,186.527 160.804,175.86 166,165.5C 168.022,161.997 170.189,158.663 172.5,155.5C 188.323,144.885 204.99,143.718 222.5,152C 236.069,159.218 247.902,168.718 258,180.5C 258.52,182.289 258.187,183.956 257,185.5C 240.673,204.486 229.339,226.152 223,250.5C 219.996,286.482 236.33,306.482 272,310.5C 286.117,310.018 298.283,305.018 308.5,295.5 Z"/></g>
<g><path style="opacity:1" fill="#c12f48" d="M 172.5,155.5 C 170.189,158.663 168.022,161.997 166,165.5C 160.804,175.86 160.137,186.527 164,197.5C 190.855,257.877 219.855,317.21 251,375.5C 260.493,390.495 273.659,395.162 290.5,389.5C 272.145,401.45 256.978,398.116 245,379.5C 213.264,320.361 183.931,260.028 157,198.5C 153.724,181.064 158.891,166.731 172.5,155.5 Z"/></g>
<g><path style="opacity:1" fill="#c22e48" d="M 291.5,175.5 C 291.343,176.873 291.51,178.207 292,179.5C 303.331,192.812 312.664,207.479 320,223.5C 327.331,238.487 329.331,254.154 326,270.5C 323.085,281.038 317.252,289.371 308.5,295.5C 315.822,288.065 319.989,279.065 321,268.5C 322.712,256.029 321.046,244.029 316,232.5C 308.271,214.697 298.271,198.363 286,183.5C 286.32,179.978 288.153,177.311 291.5,175.5 Z"/></g>
<g><path style="opacity:1" fill="#fe385c" d="M 273.5,198.5 C 286.908,214.31 296.408,232.31 302,252.5C 303.948,263.032 301.948,272.699 296,281.5C 294.871,283.141 293.371,284.141 291.5,284.5C 271.789,290.999 257.623,284.999 249,266.5C 246.486,255.521 247.486,244.855 252,234.5C 257.418,221.31 264.585,209.31 273.5,198.5 Z"/></g>
<g><path style="opacity:1" fill="#c3334b" d="M 273.5,198.5 C 264.585,209.31 257.418,221.31 252,234.5C 247.486,244.855 246.486,255.521 249,266.5C 257.623,284.999 271.789,290.999 291.5,284.5C 288.057,288.222 283.723,290.389 278.5,291C 260.976,293.775 249.142,286.942 243,270.5C 240.949,254.097 244.282,238.763 253,224.5C 258.838,214.821 265.172,205.487 272,196.5C 272.717,197.044 273.217,197.711 273.5,198.5 Z"/></g>
</svg>
